<svg version="1.1" id="Layer_1" xmlns="http://www.w3.org/2000/svg" xmlns:xlink="http://www.w3.org/1999/xlink" x="0px" y="0px"
	 width="100%" viewBox="0 0 406 304" enable-background="new 0 0 406 304" xml:space="preserve">
<path fill="#C7E2EA" opacity="1.000000" stroke="none" 
	d="
M93.749893,1.323676 
	C196.916504,1.000000 299.833038,1.023197 402.749390,0.903304 
	C406.342560,0.899119 407.105743,1.627553 407.099243,5.242785 
	C406.967072,79.182571 407.000000,153.122665 407.000000,227.531342 
	C405.120483,229.531738 404.358276,231.801529 403.164917,233.788620 
	C400.354736,238.467896 396.047028,240.701233 390.884979,239.364960 
	C382.993439,237.322128 375.132904,237.758881 367.145630,237.907791 
	C349.826385,238.230698 332.497406,238.033600 315.172668,237.983643 
	C311.577881,237.973267 308.277252,238.466354 305.268250,240.662659 
	C302.926605,242.371857 300.106934,242.926178 297.215698,242.966385 
	C291.885254,243.040558 286.554688,243.005798 281.223999,242.982666 
	C276.363037,242.961563 272.422272,241.309921 270.108124,236.770538 
	C269.483459,235.545227 268.637543,234.564087 267.461487,233.859207 
	C264.995911,232.381439 264.539581,230.039917 264.536957,227.400909 
	C264.495789,186.131042 264.524078,144.861160 264.500702,103.591301 
	C264.499390,101.272064 264.777954,98.918442 263.766388,96.281761 
	C263.231384,95.476913 262.889099,95.054161 262.317261,94.326508 
	C259.081940,90.450241 256.008331,87.429337 251.110611,85.922722 
	C245.749786,84.273666 239.960281,82.497200 236.442535,77.325760 
	C235.420944,75.823906 233.965759,75.269707 232.197281,75.187775 
	C227.537949,74.971916 223.518036,73.407921 220.504501,69.634918 
	C219.224777,68.032677 217.496582,66.965576 215.365677,67.058174 
	C213.103149,67.156487 211.179367,66.208809 208.857422,65.295013 
	C208.324509,65.064064 208.121841,64.950745 207.647568,64.623154 
	C206.025665,62.168373 204.231049,60.750076 201.096619,61.133980 
	C200.548950,61.002766 200.334015,60.932880 199.813889,60.716339 
	C198.632904,59.851780 197.634705,59.376339 196.239243,58.922504 
	C195.740494,58.636505 195.551071,58.503105 195.117828,58.120678 
	C192.695053,54.779259 190.001450,52.743824 186.007370,52.282146 
	C182.720032,51.902157 179.156052,50.170597 177.457138,47.863457 
	C173.984589,43.147659 169.651749,41.874779 164.051788,41.908356 
	C163.251266,42.025227 162.790726,42.032021 161.992218,41.919357 
	C161.445007,41.762955 161.234985,41.675034 160.752228,41.390240 
	C160.331619,41.030849 160.183731,40.868328 159.861755,40.434387 
	C159.267288,39.117840 158.491516,38.535297 157.070923,38.322594 
	C156.558624,38.190365 156.355286,38.125469 155.852570,37.939476 
	C155.165054,37.622105 154.780411,37.419216 154.113419,37.040695 
	C153.647552,36.740669 153.466949,36.610764 153.037750,36.258816 
	C151.115463,34.452282 149.062668,33.650467 146.538269,33.025696 
	C146.025574,32.760712 145.831940,32.633591 145.391418,32.262955 
	C144.847458,31.627182 144.500488,31.206583 144.452316,30.740513 
	C144.007263,26.436180 141.903656,25.184782 137.950653,27.064758 
	C137.380890,27.335730 136.662750,27.164232 135.679993,26.945610 
	C135.138016,26.724550 134.932175,26.608681 134.466202,26.250839 
	C133.548660,24.895142 133.129700,23.505541 131.673233,23.176825 
	C124.266060,21.505064 118.412369,16.211046 110.739563,14.271637 
	C110.187469,14.055990 109.974442,13.949471 109.467102,13.640821 
	C104.758347,10.467978 100.742172,6.727243 94.736839,6.002391 
	C94.175888,5.696423 93.965973,5.541698 93.524063,5.064124 
	C92.832954,3.674494 92.876480,2.641460 93.749893,1.323676 
z"/>
<path fill="#DB6511" opacity="1.000000" stroke="none" 
	d="
M79.699203,1.368996 
	C81.066673,1.000000 82.133339,1.000000 83.600006,1.000000 
	C90.286819,5.223840 97.535477,7.573472 104.075348,11.332065 
	C109.030037,14.179616 113.931221,17.231499 119.862015,18.951900 
	C133.220795,26.997004 146.893173,33.668736 160.766174,40.732616 
	C161.047562,40.972855 161.010330,41.006508 161.015579,40.982040 
	C168.069214,44.994877 175.479965,48.340923 182.643936,52.168461 
	C192.273346,57.313229 201.559906,63.105267 211.397827,67.830826 
	C224.092117,73.928421 236.541260,80.497322 249.041016,86.966728 
	C252.853989,88.940178 256.543243,91.176163 260.391693,93.107094 
	C262.554779,94.192390 263.445435,96.033020 263.446228,98.409714 
	C263.457245,130.549850 263.609497,162.690094 263.360138,194.829987 
	C263.356262,195.331268 263.169983,195.807190 262.791412,196.623016 
	C260.727264,198.641876 259.249115,197.380447 257.777100,196.302078 
	C257.462463,196.821045 257.688324,197.283127 257.744110,197.748093 
	C259.014801,208.340500 256.655518,210.710220 246.133316,209.741379 
	C242.504166,209.407211 240.354523,207.713409 239.324585,204.235809 
	C238.086258,200.054443 236.815903,195.953033 238.460663,191.558395 
	C239.489349,188.809845 238.327179,187.497742 235.416306,187.480347 
	C231.388519,187.456268 229.321533,184.986389 228.703659,181.354599 
	C228.179092,178.271439 226.631302,176.714432 223.573334,176.278931 
	C221.445862,175.975967 219.427551,174.731369 217.251053,174.960693 
	C209.547577,175.772354 203.455978,172.136185 197.383057,168.190979 
	C191.987015,164.685471 188.438049,160.341507 189.139572,153.426956 
	C189.443161,150.434784 188.915695,147.612274 185.090363,147.198166 
	C182.429108,146.910049 180.818176,147.893524 181.347809,150.880936 
	C181.637985,152.517685 182.275055,154.081665 182.480896,155.741241 
	C183.204651,161.576218 180.681717,165.923294 175.228775,167.774384 
	C173.285370,168.434097 171.698059,169.598755 169.944092,170.527878 
	C167.465408,171.840912 165.044373,173.511459 161.675934,172.127838 
	C158.775055,167.896454 161.048035,163.488998 160.066498,158.987305 
	C159.459549,157.350769 159.554611,156.037552 159.522003,154.381683 
	C159.362152,152.540604 159.594284,150.994644 158.605743,149.401825 
	C157.428162,148.434631 156.401245,147.797714 155.007248,147.171295 
	C154.164795,146.771057 153.639893,146.432938 152.809525,145.994507 
	C151.520798,145.065826 150.463669,144.379120 148.864700,144.032608 
	C147.924927,143.648804 147.301041,143.369965 146.344208,142.958145 
	C130.756470,135.512451 115.128571,129.009537 99.943985,121.549026 
	C93.122261,118.197372 85.921486,115.619156 79.225807,111.222824 
	C78.544167,109.978546 77.895889,109.164665 77.171532,107.926697 
	C76.681335,106.482704 76.700989,105.402908 77.081985,103.928192 
	C79.556442,96.130730 78.769485,88.655190 77.522499,80.805183 
	C77.178192,79.912872 77.100403,79.376518 77.162292,78.427917 
	C79.018913,73.783028 79.351967,69.543037 77.008240,64.920746 
	C76.417580,63.061226 76.480377,61.596889 77.045143,59.699356 
	C78.730263,57.043732 78.502144,54.503876 78.504532,52.017799 
	C78.518585,37.367485 78.491089,22.717112 78.530930,8.066885 
	C78.536720,5.934832 78.145454,3.713573 79.699203,1.368996 
z"/>
<path fill="#DE6710" opacity="1.000000" stroke="none" 
	d="
M161.627579,172.306152 
	C165.273529,170.929245 168.644028,170.051895 171.196152,167.408722 
	C171.836197,166.745834 172.865997,166.318039 173.791977,166.095276 
	C180.003586,164.601074 182.529572,159.793701 180.217575,153.534271 
	C179.294876,151.036133 177.742966,148.370758 180.193787,146.190063 
	C182.566010,144.079300 185.474380,145.053818 188.250198,145.902817 
	C191.021805,146.750549 190.791626,148.872620 191.051865,151.061386 
	C191.518524,154.986404 189.238113,159.504379 193.423203,162.682098 
	C199.688583,167.439346 205.434067,173.557983 214.169373,172.890930 
	C219.183105,172.508087 223.454956,175.129013 228.295044,175.273407 
	C230.528946,175.340042 229.829407,177.806671 230.013306,179.359619 
	C230.712021,185.260605 231.446198,185.881226 237.447220,185.351196 
	C241.553101,184.988556 241.667053,188.192932 240.765854,190.251007 
	C238.798920,194.742905 239.215942,198.786285 240.885925,203.140045 
	C241.585526,204.963974 241.312637,207.597916 243.774933,207.762268 
	C247.668976,208.022186 251.864380,209.133484 255.418579,207.017288 
	C256.936432,206.113556 256.919220,203.648773 256.425354,201.479996 
	C255.588913,197.806564 255.510910,194.056473 257.701111,190.499390 
	C260.399872,192.135925 257.184509,196.457031 261.623962,196.980850 
	C263.668793,198.330521 263.460693,200.228409 263.458984,202.005402 
	C263.450928,210.385895 263.640137,218.767532 263.277100,227.586578 
	C259.493439,233.293320 259.401520,237.015411 263.040649,241.587372 
	C263.812408,261.802734 263.394257,281.601624 263.419769,301.398804 
	C263.421082,302.405548 263.202759,303.383057 262.307495,304.619598 
	C228.645767,305.000000 195.291550,305.000000 161.468658,305.000000 
	C159.157578,303.220825 158.975906,300.923737 158.986359,298.563416 
	C159.017899,291.440308 158.845398,284.316315 159.164001,276.720947 
	C159.161804,270.566986 158.453369,264.878021 159.577209,258.763672 
	C163.635818,252.939514 164.334595,246.840790 164.102493,240.364166 
	C163.733017,230.055298 165.316116,219.800903 165.142059,209.461365 
	C165.013046,201.796860 163.672501,194.220093 163.964401,186.549545 
	C164.029709,184.833649 163.505035,183.258270 161.723785,181.827362 
	C160.695709,180.431473 160.611115,179.211212 160.519287,177.527100 
	C160.265961,175.497009 160.319290,173.976440 161.627579,172.306152 
z"/>
<path fill="#CDE1E6" opacity="1.000000" stroke="none" 
	d="
M263.564148,94.464706 
	C267.340607,94.955002 265.933624,97.836838 265.938324,99.858170 
	C266.024200,136.986923 266.066010,174.116165 265.929871,211.244598 
	C265.909943,216.680359 267.201843,222.088593 266.061188,227.557159 
	C265.595581,229.789612 265.997986,231.822464 269.023010,232.282639 
	C270.537476,232.513046 271.613159,233.828217 271.876526,235.439087 
	C272.548065,239.546295 275.424866,240.886795 279.036987,240.956177 
	C285.694397,241.084045 292.356079,240.981735 299.015900,241.000320 
	C300.565186,241.004654 302.232178,240.827728 303.239136,239.763458 
	C307.157013,235.622665 312.123474,235.950638 317.149902,235.972031 
	C334.298859,236.045029 351.455627,236.294785 368.594238,235.867126 
	C376.385834,235.672684 383.970642,235.216843 391.555725,237.773880 
	C395.705078,239.172714 400.025879,236.407272 401.792297,232.036697 
	C402.673706,229.855881 403.675262,228.154556 406.626984,228.010361 
	C407.000000,252.284851 406.877869,276.570953 407.124786,300.853271 
	C407.164215,304.729401 405.995667,305.084686 402.662201,305.076477 
	C356.754120,304.963165 310.845673,305.000000 264.468658,305.000000 
	C262.520386,303.090149 263.027039,300.842682 263.022278,298.722870 
	C262.982758,281.062469 263.001648,263.401917 262.999756,245.741409 
	C262.994568,197.278809 263.002075,148.816223 263.007721,100.353630 
	C263.007935,98.526352 262.850555,96.685432 263.564148,94.464706 
z"/>
<path fill="#FDBD89" opacity="1.000000" stroke="none" 
	d="
M78.455704,103.585770 
	C78.189362,105.077774 78.141823,106.135704 78.156982,107.587158 
	C78.493958,108.455032 78.608536,108.965195 78.421875,109.883835 
	C75.206551,113.079987 71.065460,112.948250 67.046219,114.257828 
	C64.723969,114.403801 62.781891,114.515640 60.751217,115.806976 
	C60.196484,116.050270 59.967735,116.131233 59.384842,116.292999 
	C57.127956,116.455902 55.189770,116.398392 53.274719,117.909744 
	C52.466839,118.236122 51.979904,118.341293 51.103794,118.419785 
	C44.772400,118.321251 39.297539,120.186440 33.590145,122.697968 
	C33.005344,123.009842 32.758595,123.113556 32.118195,123.306931 
	C23.982553,124.575935 16.610518,127.288689 8.969920,128.884399 
	C6.563995,129.386887 4.195312,130.520996 1.328798,129.242142 
	C1.000000,92.645775 1.000000,56.291542 1.000000,19.468658 
	C6.165364,15.356271 12.417211,14.743691 18.237402,13.057955 
	C32.837852,8.829142 47.192291,3.612250 62.670177,1.226645 
	C67.689255,1.000000 72.378510,1.000000 77.533882,1.000000 
	C78.516396,1.673719 78.904640,2.415063 78.904449,3.276595 
	C78.900314,21.897291 79.383118,40.520222 78.428596,59.575607 
	C78.160118,61.396442 78.122139,62.779388 78.148132,64.573433 
	C79.655388,68.998520 78.978134,73.092445 78.456375,77.596420 
	C78.206787,78.456879 78.172348,78.893311 78.191406,79.654808 
	C79.695274,87.679573 78.959900,95.419807 78.455704,103.585770 
z"/>
<path fill="#8E4A02" opacity="1.000000" stroke="none" 
	d="
M158.776306,147.953674 
	C161.698975,148.453003 160.822861,150.549103 160.948364,152.601044 
	C159.855118,157.659485 155.339355,160.268646 153.737625,165.034485 
	C149.799866,168.630341 146.458145,172.229736 143.636078,176.415482 
	C140.943878,180.408630 136.433990,182.672943 132.779541,186.250717 
	C130.958084,186.693069 129.550598,187.223389 128.397522,188.221527 
	C112.971344,201.575012 95.694473,212.885956 82.397545,228.572281 
	C74.617096,237.750839 66.732567,246.917053 60.125202,257.043427 
	C59.487125,258.021332 58.879501,259.013672 57.682182,259.996277 
	C54.460972,261.736725 53.411510,264.490295 52.784184,267.446259 
	C52.332943,269.572510 51.795399,271.606445 50.375572,273.335541 
	C44.120552,280.952850 38.987453,289.089600 38.077618,299.270935 
	C37.902920,301.225800 37.269848,303.178589 35.264439,304.737396 
	C32.629440,305.000000 30.258884,305.000000 27.444164,305.000000 
	C25.770454,303.837433 25.654913,302.371002 25.937302,300.840454 
	C28.524515,286.817810 33.418678,273.921844 41.999020,262.214050 
	C47.870392,254.202652 53.221485,245.714371 58.466591,237.226669 
	C60.766888,233.504318 63.209793,230.069244 66.638611,227.272781 
	C72.588730,222.419983 76.875893,215.819382 82.860168,211.053162 
	C92.254509,203.570923 99.991066,194.329468 110.899857,188.296967 
	C118.653610,184.009186 126.023293,178.313751 133.293335,172.839142 
	C138.331665,169.045074 143.439484,165.538879 147.497528,160.219177 
	C147.728775,159.670670 147.830032,159.456619 148.136108,158.956268 
	C150.254181,156.796738 153.036407,156.019119 154.764343,153.407455 
	C155.815475,151.232193 156.217636,149.016205 158.776306,147.953674 
z"/>
<path fill="#7F4201" opacity="1.000000" stroke="none" 
	d="
M1.252009,221.268524 
	C1.000000,216.310745 1.000000,211.621490 1.000000,206.466125 
	C4.273366,204.445053 5.116745,207.121552 6.010672,209.118820 
	C11.418787,221.201981 17.611498,232.910004 23.050734,244.978378 
	C24.838215,248.944397 26.879814,249.467911 28.487410,246.137070 
	C32.887165,237.021072 42.043690,232.076248 47.247627,223.817841 
	C53.068542,214.580292 61.361237,208.203354 70.219879,202.194672 
	C76.012497,198.265610 79.965561,192.279694 84.565613,187.057678 
	C86.001709,185.427399 87.172760,183.489487 89.250267,182.708664 
	C105.552002,176.581818 120.267685,167.003632 136.617493,160.989410 
	C137.873383,160.527420 139.099823,160.005783 140.812805,160.569183 
	C142.101700,161.931290 141.766464,163.187103 141.238190,164.815781 
	C140.655930,166.136307 139.984009,166.914246 138.894653,167.823318 
	C126.766029,174.363159 114.883614,180.658905 103.789093,188.151306 
	C96.594917,193.009720 89.053429,197.778397 83.172722,204.210678 
	C79.125443,208.637558 75.127037,212.688721 69.821884,215.570099 
	C66.861053,217.178192 65.023842,220.095367 64.049965,223.822937 
	C63.425610,225.063309 62.750546,225.802628 61.727585,226.735214 
	C58.255314,228.901611 55.678638,231.473251 53.850956,234.682968 
	C49.644592,242.070053 43.673000,248.177170 39.078678,255.299515 
	C37.026585,258.480774 34.341251,261.211517 33.041527,264.917664 
	C32.139568,267.489594 30.619598,269.786804 27.519464,270.056610 
	C24.210159,270.344635 23.085615,267.764404 21.679821,265.457733 
	C19.405197,261.725372 18.230127,257.823425 17.441927,253.434326 
	C16.369164,247.460648 12.519641,242.277206 10.321228,236.532806 
	C8.239634,231.093658 5.225070,226.076324 1.252009,221.268524 
z"/>
<path fill="#6B3801" opacity="1.000000" stroke="none" 
	d="
M1.286990,165.251297 
	C1.000000,164.250000 1.000000,163.500000 1.000000,162.375000 
	C2.913090,159.691742 5.450855,159.534683 8.232490,159.590668 
	C19.531843,159.818069 30.765373,160.790344 41.987892,162.064407 
	C53.138988,163.330368 64.166962,161.033173 75.254906,160.500198 
	C80.832138,160.232117 86.608307,160.650543 92.396667,158.342285 
	C94.987274,157.156677 97.085083,155.815506 100.034653,155.981537 
	C104.110306,158.010788 107.015327,155.968567 110.302948,153.992432 
	C112.422699,153.431137 114.208466,153.491058 116.363754,153.897949 
	C121.272469,158.289902 120.605370,160.996674 115.095421,163.360413 
	C100.957893,169.425293 86.007736,174.348846 73.842331,183.838501 
	C62.616528,192.595245 49.862617,199.287506 39.681587,209.363129 
	C36.477432,212.534103 34.289291,216.501236 32.428112,220.606262 
	C31.879713,221.815826 31.490362,223.103180 30.673569,224.175339 
	C29.462284,225.765289 27.860338,226.467072 25.870020,226.146118 
	C23.994406,225.843643 23.084982,224.607559 22.570621,222.853653 
	C19.954430,213.932709 14.878461,206.352356 9.267385,199.125778 
	C6.399330,195.431992 4.557542,191.092453 1.269626,187.261566 
	C1.000000,183.638718 1.000000,180.277420 1.000000,176.458069 
	C2.850972,174.567780 4.474177,175.569611 6.018741,176.560791 
	C7.856050,177.739822 9.630115,179.198959 10.540977,181.131287 
	C14.597277,189.736404 21.399467,196.617371 25.445017,205.223969 
	C27.364902,209.308380 29.858856,209.747192 32.531830,206.397385 
	C39.853592,197.221664 49.257782,190.398438 58.410866,183.320358 
	C63.846401,179.117050 68.649132,173.932343 75.739632,172.073425 
	C77.999077,171.481079 80.048676,169.666306 81.917313,167.506058 
	C80.174370,166.382385 78.355385,166.779816 76.672577,166.790970 
	C65.072319,166.867783 53.533073,169.157761 41.947887,168.388977 
	C30.034775,167.598419 18.097153,168.003784 6.203448,167.066925 
	C4.537381,166.935684 2.883723,166.713776 1.286990,165.251297 
z"/>
<path fill="#884702" opacity="1.000000" stroke="none" 
	d="
M60.743767,226.261230 
	C61.493301,225.420364 61.987484,224.841339 62.740372,224.130569 
	C66.390709,218.807861 70.118103,214.076706 76.145996,211.550186 
	C79.491325,210.148041 80.188301,205.966217 83.026863,203.835846 
	C94.681458,195.088852 106.157837,186.065735 118.994614,179.063217 
	C125.400673,175.568710 131.198700,171.152084 137.746399,167.254425 
	C138.513565,166.446503 139.027145,165.892395 139.770355,165.168839 
	C142.455994,162.650330 144.143204,159.117310 148.700790,159.772324 
	C148.806137,160.630676 148.783020,161.403854 148.392853,161.869354 
	C142.414978,169.001205 134.787903,174.092697 127.110916,179.162933 
	C117.596687,185.446579 107.225296,191.039276 98.954773,198.433594 
	C90.128799,206.324524 81.340607,214.640244 72.878334,223.116348 
	C61.672707,234.340317 54.481251,248.072540 45.232914,260.471649 
	C39.242413,268.503021 35.627087,277.286224 31.328491,285.989258 
	C28.428572,291.860474 28.908430,298.237854 27.002766,304.587158 
	C26.250000,305.000000 25.500000,305.000000 24.375000,305.000000 
	C22.846535,304.013916 21.818321,302.946106 21.520689,301.371185 
	C18.804058,286.996368 12.376129,273.546509 10.919069,258.855499 
	C10.837299,258.031067 10.710280,257.108521 10.247472,256.468384 
	C5.500659,249.903046 3.097046,242.419983 1.262716,234.298981 
	C1.000000,232.285645 1.000000,230.571289 1.000000,228.428467 
	C3.922258,226.368073 5.280114,228.697357 6.673804,230.422821 
	C8.688206,232.916779 9.386508,236.088852 10.647019,238.977554 
	C16.113033,251.503922 18.117607,265.152008 23.330994,277.751923 
	C23.764376,278.799316 23.832952,280.048828 25.622145,281.192810 
	C32.678333,259.972931 47.496174,243.846588 60.743767,226.261230 
z"/>
<path fill="#884702" opacity="1.000000" stroke="none" 
	d="
M1.000000,129.449982 
	C11.106793,126.544876 21.213587,124.089752 31.753223,121.645348 
	C32.352688,122.131447 32.504093,122.641861 32.275932,123.104965 
	C29.827715,128.074234 29.739750,128.277679 34.955067,130.359390 
	C41.482056,132.964645 48.560604,133.486145 55.381248,134.876328 
	C69.689209,137.792618 84.260445,139.187393 98.778549,140.730881 
	C105.404366,141.435318 112.040779,141.881500 118.550102,143.418686 
	C128.296921,145.720367 138.048798,143.004715 148.209381,143.394470 
	C149.725128,143.584137 150.766190,143.938232 152.043945,144.794876 
	C152.865005,145.794754 153.101791,146.587463 152.912170,147.875549 
	C151.496918,150.598053 149.303635,150.615158 146.681091,150.436768 
	C145.164429,150.106384 144.041412,149.687988 142.470200,150.003555 
	C141.590775,150.108490 141.077942,150.084656 140.173401,149.879608 
	C131.130310,149.151077 122.489067,150.107773 113.866104,150.001785 
	C100.934288,149.842789 87.855789,152.464813 75.116829,149.613785 
	C65.562431,147.475464 55.800056,146.479691 46.352150,143.744125 
	C40.292126,141.989532 33.802380,142.863785 27.526920,142.069305 
	C20.617085,141.194519 13.639759,140.794968 6.669740,140.481400 
	C4.815703,140.397980 3.031535,139.998642 1.324135,138.298828 
	C1.000000,135.299988 1.000000,132.599976 1.000000,129.449982 
z"/>
<path fill="#FDAF5A" opacity="1.000000" stroke="none" 
	d="
M120.277298,304.743073 
	C112.979050,305.000000 105.958107,305.000000 98.468582,305.000000 
	C96.533943,297.635071 96.042488,290.471985 102.520844,284.915710 
	C105.734825,282.159180 106.712227,278.183411 108.300873,274.553436 
	C109.542191,271.717102 104.821449,272.113770 105.471436,269.169067 
	C107.322647,266.074615 110.216248,265.967682 113.373138,265.598755 
	C114.926186,265.630371 116.095093,265.581299 117.519791,264.868500 
	C123.730736,263.838745 129.233536,261.467712 135.472092,260.490540 
	C137.951416,260.232513 140.025299,259.664734 142.505768,260.367676 
	C144.325378,264.908356 141.580490,272.201355 137.424698,275.246796 
	C129.564560,281.006836 124.620377,288.431427 124.361671,298.483368 
	C124.291016,301.228882 122.868195,303.147583 120.277298,304.743073 
z"/>
<path fill="#663501" opacity="1.000000" stroke="none" 
	d="
M1.000000,165.458069 
	C16.859348,165.666641 32.714436,166.685211 48.579529,166.877365 
	C59.326591,167.007523 70.010201,164.669525 80.812469,165.038712 
	C82.483170,165.095779 84.978745,164.035019 85.574867,166.400681 
	C86.156219,168.707687 83.457214,168.927399 82.097183,169.990540 
	C78.145203,173.079742 73.038857,174.295990 69.161270,176.766220 
	C65.049973,179.385315 61.265648,183.433365 57.014290,186.367188 
	C50.380817,190.944885 45.536518,197.629822 38.373093,201.608932 
	C36.564190,202.613739 35.469292,205.189606 34.438648,207.240692 
	C33.006981,210.089874 30.452827,210.763733 27.816118,210.815353 
	C25.086689,210.868805 24.709890,208.268326 23.929283,206.279312 
	C22.402119,202.388123 20.597784,198.707993 17.377922,195.822922 
	C13.932662,192.735870 13.065931,188.053009 10.693372,184.274673 
	C8.428157,180.667313 5.909227,177.494324 1.350768,176.046936 
	C1.000000,172.638718 1.000000,169.277420 1.000000,165.458069 
z"/>
<path fill="#9D5409" opacity="1.000000" stroke="none" 
	d="
M152.746857,165.269592 
	C152.746460,162.407120 153.352173,160.387955 155.652893,158.651398 
	C157.515488,157.245483 158.756805,155.016464 160.599640,153.072739 
	C160.949554,154.385147 160.973511,155.777344 160.981781,157.587189 
	C160.328476,162.784119 159.305878,167.488846 158.088074,172.537354 
	C154.947098,180.456253 149.883804,186.869186 146.144119,194.020950 
	C145.199768,195.826920 144.048615,197.399353 142.115982,198.824677 
	C131.200027,207.742966 121.161697,217.084930 111.145447,226.472260 
	C107.130119,230.235458 103.867371,234.703384 99.808037,238.247040 
	C92.162994,244.920929 86.350632,253.203415 79.512268,260.548035 
	C75.149590,265.233704 72.571991,272.116882 72.329285,279.522888 
	C72.182747,280.094757 72.107155,280.317963 71.873322,280.855072 
	C71.343765,281.755554 70.844917,282.233459 70.167282,282.998016 
	C69.802750,283.416626 69.648193,283.575134 69.242050,283.946075 
	C67.360619,285.113220 66.759827,286.693176 66.331650,288.758850 
	C62.731064,293.745941 62.992794,300.308777 58.251022,304.736450 
	C56.933331,305.000000 55.866661,305.000000 54.399994,305.000000 
	C50.863010,299.923859 52.001656,294.885040 55.088718,290.551331 
	C59.323948,284.605774 62.232361,278.380096 63.681019,271.152863 
	C64.681854,266.159821 67.837502,261.700836 71.132706,257.789795 
	C73.714836,254.725113 76.170616,251.596542 78.368942,248.282166 
	C81.176079,244.049896 84.462593,240.405640 88.915634,237.866638 
	C90.212410,237.127228 91.615135,236.293472 92.380348,235.045761 
	C98.043381,225.811996 108.146790,220.851562 114.319481,212.104965 
	C116.058517,209.640778 118.739937,208.155090 121.240280,206.470932 
	C128.460129,201.607941 134.200165,195.193573 139.547333,187.973999 
	C142.748535,179.574203 147.846161,172.687302 152.746857,165.269592 
z"/>
<path fill="#753D01" opacity="1.000000" stroke="none" 
	d="
M140.742493,149.252258 
	C141.443558,148.998154 141.887665,148.997986 142.664825,148.997696 
	C143.384903,148.618622 143.845825,148.471802 144.691498,148.777039 
	C147.139297,148.828613 149.333084,149.411469 151.706787,148.252563 
	C152.469589,147.611496 153.004471,147.467911 153.983475,147.766815 
	C155.361679,149.194351 155.458435,150.575134 154.918396,152.424377 
	C153.211044,154.951370 150.671173,155.176331 148.116180,156.192917 
	C142.996048,159.097351 137.576538,160.237152 132.566086,162.458160 
	C121.210274,167.491837 110.228401,173.273987 98.994507,178.541595 
	C97.026497,179.464432 95.020569,180.256348 92.965599,180.918640 
	C89.393837,182.069778 86.492561,184.099457 83.992508,186.909286 
	C76.897865,194.883026 69.134972,202.030029 60.060234,207.847488 
	C54.193516,211.608444 49.654915,216.889786 45.845448,222.977524 
	C41.813030,229.421570 36.109055,234.722702 30.682522,240.044312 
	C26.777716,243.873611 22.271381,242.792221 20.324945,237.641754 
	C17.311115,229.666855 13.287278,222.246567 9.555651,214.638611 
	C7.257780,209.953766 3.931190,206.054886 1.250522,201.271332 
	C1.000000,198.958328 1.000000,196.916672 1.000000,194.437500 
	C3.353280,192.439804 4.812766,194.191849 6.062875,195.623337 
	C13.442449,204.073669 19.055090,213.593079 22.896023,224.143600 
	C23.065695,224.609665 23.160084,225.105667 23.352629,225.566147 
	C25.741896,231.280350 26.836172,231.420685 30.787172,226.691162 
	C32.821026,224.256546 34.764828,221.798935 35.984776,218.825226 
	C36.753716,216.950882 37.989716,215.387100 39.633026,214.167542 
	C52.844753,204.362564 65.198662,193.522873 77.682396,182.829834 
	C85.980385,175.722137 95.678047,171.147247 106.153275,167.993469 
	C111.493073,166.385818 115.625290,162.178650 121.077507,160.400635 
	C126.261986,158.709961 131.096848,155.972748 136.374466,154.387314 
	C137.858093,153.941650 139.768585,153.758087 140.029175,151.223755 
	C140.117004,150.389343 140.267807,149.936920 140.742493,149.252258 
z"/>
<path fill="#713B01" opacity="1.000000" stroke="none" 
	d="
M140.679993,150.735199 
	C143.732666,152.618774 142.629196,153.898438 140.501572,154.711594 
	C133.077637,157.548935 125.609604,160.271103 118.150948,163.016983 
	C117.378654,163.301315 116.315811,163.200668 115.794411,163.701752 
	C107.508568,171.664917 95.495110,171.992981 86.306808,178.221237 
	C80.347977,182.260406 75.377037,187.373459 69.795067,191.804901 
	C59.979046,199.597733 51.010445,208.448486 40.458714,215.328033 
	C38.995213,216.282227 37.839249,217.591095 37.490044,219.218506 
	C36.365395,224.459915 31.827492,227.323288 29.123901,231.456863 
	C27.309761,234.230560 24.974569,233.295898 24.021427,230.403641 
	C21.041056,221.359879 16.252655,213.210510 11.436112,205.122498 
	C8.938991,200.929306 6.090731,196.745224 1.342934,194.048615 
	C1.000000,191.958328 1.000000,189.916672 1.000000,187.437500 
	C2.806296,186.914566 4.207806,187.456177 5.095424,189.204681 
	C10.991638,200.819534 21.649548,209.773102 24.138285,223.301407 
	C24.404577,224.748901 25.577171,224.967773 26.828804,224.936844 
	C28.311733,224.900208 29.331743,224.254440 29.879007,222.821442 
	C30.881237,220.197144 31.562670,217.499786 33.311893,215.122574 
	C41.278236,204.296295 51.451569,196.278351 63.531380,190.522232 
	C64.826584,189.905075 65.981201,188.734680 66.872177,187.569458 
	C72.541573,180.154968 81.268318,177.239059 88.972389,173.086258 
	C97.622261,168.423615 107.048828,165.196533 116.157990,161.393997 
	C119.589577,159.961533 119.123680,157.981354 117.068024,155.342514 
	C119.027023,152.161423 122.934700,152.785873 125.613480,150.342072 
	C127.691711,149.475159 129.450470,149.674255 131.578735,150.174072 
	C132.988693,150.458344 133.950760,150.135986 135.298157,149.706635 
	C137.324799,149.469421 138.960052,149.340591 140.679993,150.735199 
z"/>
<path fill="#7F4201" opacity="1.000000" stroke="none" 
	d="
M132.233475,151.768585 
	C130.254150,151.666351 128.513733,151.336929 126.387680,151.007385 
	C121.720703,152.950409 117.271355,153.911850 112.529701,154.057449 
	C103.130692,154.346069 93.823792,156.549652 84.319542,155.066116 
	C81.393219,154.609344 78.380058,154.427856 75.406136,154.159775 
	C69.807144,153.655060 64.001823,154.218887 58.591396,153.614059 
	C41.533081,151.707169 24.398407,152.788681 7.374318,151.209579 
	C5.413216,151.027664 3.347321,151.019608 1.354364,149.304199 
	C1.000000,145.638718 1.000000,142.277420 1.000000,138.458069 
	C15.421949,138.737030 29.915239,139.603531 44.145973,141.494812 
	C52.606995,142.619324 61.447788,143.722031 69.786110,146.442429 
	C76.790009,148.727478 84.106377,149.518951 91.331276,148.820953 
	C97.646614,148.210815 103.911896,148.872543 110.080070,148.545532 
	C118.548538,148.096634 126.998940,148.359390 135.447525,148.030167 
	C137.078247,147.966629 138.724731,148.308258 140.681702,148.730652 
	C140.999023,149.442490 140.998566,149.886658 140.996918,150.663895 
	C139.282837,150.996872 137.569946,150.996796 135.428833,150.996811 
	C134.123306,151.017883 133.233215,150.979584 132.233475,151.768585 
z"/>
<path fill="#FDB161" opacity="1.000000" stroke="none" 
	d="
M120.467941,305.000000 
	C124.636490,300.262421 120.900192,293.180145 124.773026,288.166840 
	C128.671753,283.119995 130.223846,276.560181 137.097122,273.397614 
	C140.741104,271.720886 141.436920,266.002716 142.947769,261.477325 
	C145.709961,257.105652 150.358200,258.144928 154.513596,256.760925 
	C156.031708,256.514557 157.139343,256.291107 158.690582,256.571289 
	C159.680893,256.719818 160.210388,256.917816 160.997162,257.527771 
	C161.241287,263.579651 161.189743,269.322418 161.096741,275.531952 
	C160.686951,276.334839 160.265015,276.810272 159.823532,276.781219 
	C154.455917,276.428223 152.010544,278.773499 152.269669,284.264038 
	C152.364731,286.278229 151.019608,288.297302 149.177612,289.082092 
	C143.446869,291.523682 142.219452,297.083466 139.830719,301.854370 
	C139.391068,302.732513 139.208908,303.739594 138.241562,304.736206 
	C132.311951,305.000000 126.623917,305.000000 120.467941,305.000000 
z"/>
<path fill="#7A3F01" opacity="1.000000" stroke="none" 
	d="
M1.000000,201.416656 
	C4.896978,202.420746 7.034921,205.898010 8.522623,209.147552 
	C12.452978,217.732513 18.222095,225.387451 20.844873,234.650711 
	C22.962212,242.128860 26.677744,243.303665 31.459761,237.376358 
	C35.435364,232.448593 40.824856,228.610718 43.815796,223.250183 
	C46.666054,218.141785 50.207558,213.943954 54.389057,210.223969 
	C61.190289,204.173386 69.547676,200.069092 75.792259,193.230530 
	C77.213272,191.674347 78.936020,190.391495 80.267746,188.644745 
	C83.646812,184.212570 88.034897,181.242783 93.225243,178.946655 
	C103.019394,174.613907 113.046333,170.736618 122.350594,165.331039 
	C128.340714,161.850906 134.808228,159.444839 141.402390,157.422363 
	C143.179062,156.877472 144.795044,156.190475 146.650635,155.079651 
	C147.657974,155.554977 147.875351,156.290039 147.793701,157.504761 
	C146.394516,160.184799 144.203506,160.878922 141.386765,161.067535 
	C129.832062,164.276382 120.171677,170.932861 109.396828,175.093903 
	C103.415253,177.403885 98.440765,181.659271 92.005447,183.301071 
	C85.308029,185.009720 83.203117,192.274628 78.499939,196.559311 
	C75.225952,199.541962 72.526741,203.033020 68.545265,205.362045 
	C58.978992,210.957962 51.764973,219.098282 46.001247,228.386139 
	C44.113728,231.427780 41.268620,232.940567 38.902634,235.155869 
	C34.739555,239.053833 32.279961,244.069229 29.201843,248.670654 
	C26.918674,252.083679 24.214447,251.334854 23.063524,248.606705 
	C20.031284,241.419067 15.277915,235.044525 13.134824,227.491974 
	C12.393882,224.880783 11.644334,222.264297 9.748477,220.394424 
	C6.987914,217.671738 5.736915,214.381866 4.950170,210.751221 
	C4.525308,208.790588 3.981221,206.827576 1.356726,206.056961 
	C1.000000,204.611115 1.000000,203.222214 1.000000,201.416656 
z"/>
<path fill="#9A5107" opacity="1.000000" stroke="none" 
	d="
M140.717133,187.758987 
	C139.833527,194.375244 133.403610,196.440842 130.182648,201.196442 
	C126.019341,207.343323 117.879494,208.973129 113.589615,215.168045 
	C109.496315,221.079071 102.317596,224.375488 98.502510,229.848068 
	C91.756935,239.524277 80.545677,244.628708 74.973511,255.612366 
	C72.844925,259.808167 69.903488,264.685547 66.176147,268.396698 
	C65.000114,269.567627 65.087105,271.090118 64.960976,272.586151 
	C64.475060,278.349457 62.558777,283.864838 58.784931,287.994110 
	C54.363220,292.832245 53.630028,298.150116 53.999947,304.547150 
	C51.299988,305.000000 48.599972,305.000000 45.449982,305.000000 
	C44.825024,299.403381 46.006611,293.937347 47.941803,288.838257 
	C50.449368,282.231018 52.995842,275.453674 58.615860,270.577332 
	C59.421612,269.878204 59.634342,268.904480 59.662132,267.513794 
	C59.968758,263.862305 61.556957,261.180023 63.620911,258.722870 
	C74.488693,245.784760 85.572365,233.090775 97.862915,221.406067 
	C103.961693,215.607956 110.339539,210.026184 116.000313,203.757996 
	C118.201431,201.320679 121.481949,200.671860 124.155220,198.371674 
	C127.773415,195.577942 129.757080,191.559982 133.683304,189.621918 
	C135.832581,188.560989 137.731979,186.773300 140.717133,187.758987 
z"/>
<path fill="#F8AB50" opacity="1.000000" stroke="none" 
	d="
M105.669983,268.575562 
	C106.463615,271.534973 108.591263,270.848083 110.297813,271.015594 
	C111.697380,271.152954 113.601768,271.927002 111.821671,273.124939 
	C109.054443,274.987183 109.153473,277.893738 107.887825,280.266815 
	C106.577538,282.723572 105.516388,285.204254 102.910721,286.831787 
	C100.103020,288.585449 98.874298,291.442657 98.964699,294.889526 
	C99.046288,298.000031 99.400833,301.174133 98.065811,304.589661 
	C93.643097,305.000000 89.286201,305.000000 84.464645,305.000000 
	C81.625992,302.605713 82.105087,299.530975 82.019165,296.601654 
	C81.937149,293.805328 82.132004,290.996674 81.574936,287.771057 
	C81.830864,285.021606 82.114838,282.743713 82.092621,280.399384 
	C82.023178,273.071320 82.931549,271.922516 89.754486,269.627014 
	C90.699043,269.309235 91.619347,268.921326 93.031845,268.657471 
	C95.697556,268.093323 97.993744,268.101746 100.676941,267.706238 
	C102.584358,267.418732 104.027039,267.457764 105.669983,268.575562 
z"/>
<path fill="#C06F3D" opacity="1.000000" stroke="none" 
	d="
M263.636871,93.972572 
	C263.872925,142.771317 263.903229,191.490952 263.930817,240.210602 
	C263.942902,261.494873 263.949493,282.779144 263.979309,304.531708 
	C263.555542,305.000000 263.111115,305.000000 262.333313,305.000000 
	C262.009399,283.980530 262.018829,262.961060 262.017426,241.473328 
	C259.593658,237.376831 260.110809,233.583969 261.694061,229.372009 
	C262.020294,218.643524 262.026825,208.292221 262.023682,197.472900 
	C262.019104,164.730515 261.948395,132.455719 262.128998,100.182343 
	C262.150635,96.312881 260.532318,94.690964 257.416199,93.085701 
	C240.379303,84.309219 223.260437,75.683037 206.269608,66.833649 
	C191.930542,59.365387 178.050308,50.996838 163.384247,44.115833 
	C162.291229,43.603016 161.379944,42.930050 161.054276,41.313942 
	C161.448990,40.984337 161.877136,41.011105 162.628448,41.048603 
	C170.270813,41.857903 175.808640,46.546646 181.809280,50.043579 
	C186.303696,52.662727 191.998672,53.125237 195.639099,57.902554 
	C195.840134,58.212986 195.910446,58.195591 195.885803,58.169052 
	C197.070969,58.661087 198.530762,58.570141 199.670105,59.936581 
	C199.826065,60.232384 199.889999,60.219490 199.874329,60.190891 
	C202.579010,60.891949 205.510590,61.163418 207.579498,63.967087 
	C207.737564,64.285217 207.806671,64.288490 207.818634,64.256027 
	C222.153534,69.794670 235.125504,78.049789 248.834167,84.840065 
	C253.540482,87.171227 258.340698,89.305122 262.715149,92.887314 
	C262.989319,93.500183 263.156555,93.734703 263.636871,93.972572 
z"/>
<path fill="#CEE3E8" opacity="1.000000" stroke="none" 
	d="
M62.531342,1.000000 
	C52.850746,5.552482 42.024979,7.946985 31.362902,10.841170 
	C21.505301,13.516984 11.954373,17.303118 1.414225,19.001570 
	C1.000000,14.359004 1.233394,9.702179 0.920086,5.082432 
	C0.701727,1.862707 1.263765,0.839714 4.880438,0.885919 
	C23.938562,1.129395 43.001450,1.000000 62.531342,1.000000 
z"/>
<path fill="#713B01" opacity="1.000000" stroke="none" 
	d="
M94.196487,158.546707 
	C92.014580,161.031967 89.364929,161.757690 86.756218,161.902466 
	C73.868240,162.617783 61.007355,163.649551 48.140995,164.595688 
	C43.945480,164.904190 39.266273,164.357620 34.847179,163.499756 
	C23.924644,161.379395 12.859066,161.646805 1.402707,161.985641 
	C1.000000,159.958328 1.000000,157.916672 1.000000,155.437500 
	C2.786236,153.143951 5.094767,152.992294 7.466274,152.978363 
	C20.437897,152.902161 33.352039,153.264832 46.303238,154.613113 
	C58.360924,155.868393 70.582680,154.862335 82.731758,154.985046 
	C85.401520,155.012009 88.039635,155.241989 90.685814,155.505280 
	C92.424698,155.678299 94.027534,155.984604 94.196487,158.546707 
z"/>
<path fill="#753D01" opacity="1.000000" stroke="none" 
	d="
M94.361313,158.948151 
	C93.377304,156.397095 91.248520,157.032898 89.534981,157.023285 
	C80.886581,156.974701 72.236549,156.907043 63.589352,157.019333 
	C43.005810,157.286636 22.550732,153.730850 1.468657,155.000214 
	C1.000000,153.285645 1.000000,151.571289 1.000000,149.428467 
	C14.582721,150.393677 28.380430,148.614899 41.783718,150.343781 
	C58.366623,152.482819 75.033585,151.262787 91.623520,153.547577 
	C100.835854,154.816315 110.793900,153.765686 120.265160,151.758636 
	C121.876663,151.417160 123.525276,151.250793 125.579384,151.005371 
	C124.288712,154.468582 120.631386,153.899048 117.382072,154.991379 
	C114.956329,155.004807 112.917542,155.004730 110.441727,155.005081 
	C107.407730,156.371124 104.710854,157.383286 101.357117,157.176270 
	C98.637039,156.747391 96.843399,158.364471 94.361313,158.948151 
z"/>
<path fill="#844501" opacity="1.000000" stroke="none" 
	d="
M60.657173,226.047333 
	C59.561703,232.673782 53.857601,236.557816 50.326912,241.845688 
	C42.641022,253.356766 33.099380,263.675110 28.885931,277.277679 
	C28.545023,278.378265 28.184643,279.493286 28.036636,280.628113 
	C27.841797,282.121948 28.020119,283.843689 25.843241,283.837860 
	C23.943581,283.832794 22.633022,282.642242 22.240789,280.915527 
	C20.194653,271.907990 16.639172,263.364899 14.444963,254.346497 
	C12.610856,246.808136 9.495864,239.223663 5.973988,232.056168 
	C5.087388,230.251816 3.738083,228.747330 1.345952,228.049500 
	C1.000000,225.958328 1.000000,223.916672 1.000000,221.437500 
	C4.088536,221.604523 5.635785,223.996460 7.163085,226.374451 
	C11.918864,233.779083 13.501355,242.740692 18.713144,249.946823 
	C19.434307,250.943954 19.991171,252.673706 19.636175,253.733307 
	C17.691235,259.538757 23.033733,262.666260 24.438143,267.221497 
	C25.290300,269.985535 29.211704,269.680267 30.593487,266.451202 
	C36.076260,253.638626 46.784172,244.401642 53.481342,232.427780 
	C54.962219,229.780136 57.300098,227.409927 60.657173,226.047333 
z"/>
<path fill="#A5590A" opacity="1.000000" stroke="none" 
	d="
M94.253448,269.939301 
	C86.041183,271.096252 82.194977,275.104065 83.861839,283.453522 
	C84.043915,284.365570 83.636314,285.395325 83.423805,286.785400 
	C78.336975,288.214691 77.006401,292.395935 75.690178,296.401703 
	C74.716454,299.365112 74.224663,302.487579 71.248062,304.754089 
	C66.975456,305.000000 62.950912,305.000000 58.463184,305.000000 
	C60.144558,299.502319 61.104153,293.503082 64.949890,288.351196 
	C66.388885,286.645355 67.028206,284.708588 68.771881,283.228729 
	C68.998779,283.001221 69.000000,283.000000 69.000412,282.999390 
	C69.533905,282.466278 70.067200,281.934021 70.799324,281.200989 
	C70.999138,281.001221 71.000000,281.000000 71.000458,280.999390 
	C72.824448,278.467285 74.870567,276.004303 75.191811,272.758820 
	C75.989906,264.695679 81.841698,262.142059 88.821762,260.511597 
	C90.790833,263.730255 94.216835,265.735657 94.253448,269.939301 
z"/>
<path fill="#FEB368" opacity="1.000000" stroke="none" 
	d="
M138.468628,305.000000 
	C138.722061,298.082733 140.402969,291.785645 147.544388,288.504639 
	C149.949524,287.399658 150.980957,285.270660 151.052979,282.443817 
	C151.257919,274.400848 151.976532,273.971924 160.684601,275.949890 
	C161.072189,285.354980 161.089066,294.711182 161.052979,304.533691 
	C153.645752,305.000000 146.291504,305.000000 138.468628,305.000000 
z"/>
<path fill="#934E03" opacity="1.000000" stroke="none" 
	d="
M60.751610,266.750488 
	C62.092113,268.956726 62.018040,270.343079 60.048912,272.072479 
	C52.706303,278.521210 49.133030,287.051880 48.112892,296.570343 
	C47.790314,299.580139 46.186363,301.743164 45.055649,304.636108 
	C41.969406,305.000000 38.938812,305.000000 35.454109,305.000000 
	C36.672276,295.960876 38.310398,286.940613 43.719276,279.114929 
	C44.625549,277.803711 45.192448,276.213654 46.422485,275.081879 
	C49.127533,272.592957 51.271484,270.113708 51.255516,265.869781 
	C51.245003,263.076691 53.249134,260.348480 56.650124,259.051117 
	C59.416721,260.916748 58.715309,264.290863 60.751610,266.750488 
z"/>
<path fill="#8E4A02" opacity="1.000000" stroke="none" 
	d="
M1.000000,234.466858 
	C4.399011,234.628983 5.003564,237.296875 4.931173,240.007462 
	C4.817027,244.281525 6.264477,247.798737 9.242592,250.719345 
	C11.116954,252.557541 12.299287,254.879654 12.506135,257.291443 
	C13.672607,270.892151 19.250862,283.356781 22.303596,296.461884 
	C22.901165,299.027222 23.356382,301.625732 23.938627,304.604462 
	C21.958334,305.000000 19.916666,305.000000 17.437500,305.000000 
	C15.284830,303.366577 15.230655,301.175232 14.983274,299.041595 
	C13.029854,282.193115 7.923933,266.219391 1.264764,250.301971 
	C1.000000,244.977905 1.000000,239.955811 1.000000,234.466858 
z"/>
<path fill="#924A02" opacity="1.000000" stroke="none" 
	d="
M1.000000,250.468567 
	C5.741394,251.799850 6.952381,256.509583 7.622332,260.344788 
	C8.966025,268.036926 12.131061,275.116669 14.018717,282.607300 
	C15.821981,289.763123 16.358318,296.892517 17.000002,304.550934 
	C15.933331,305.000000 14.866661,305.000000 13.399996,305.000000 
	C10.777599,303.147583 10.408443,300.484344 9.887770,297.887238 
	C8.127837,289.108795 5.390373,280.653687 1.257376,272.287537 
	C1.000000,264.979065 1.000000,257.958099 1.000000,250.468567 
z"/>
<path fill="#964D02" opacity="1.000000" stroke="none" 
	d="
M1.000000,272.468658 
	C4.911471,272.903595 5.880683,276.597961 6.696826,279.425812 
	C9.055031,287.596802 11.920805,295.676300 12.985525,304.594727 
	C9.039310,305.000000 3.676551,306.525574 1.529432,304.552246 
	C-0.445607,302.737091 1.016005,297.157318 1.005177,293.235870 
	C0.986493,286.469727 1.000000,279.703491 1.000000,272.468658 
z"/>
<path fill="#B05E10" opacity="1.000000" stroke="none" 
	d="
M71.463181,305.000000 
	C73.461090,298.692444 75.000587,292.063690 78.929756,286.284149 
	C81.241257,282.884064 81.682304,285.203461 83.057487,286.982300 
	C84.653656,292.781494 83.642868,298.448212 83.983551,304.532837 
	C79.975456,305.000000 75.950912,305.000000 71.463181,305.000000 
z"/>
<path fill="#D26B22" opacity="1.000000" stroke="none" 
	d="
M78.557037,59.871109 
	C78.135414,40.654758 78.072739,21.296015 78.005035,1.468636 
	C78.444443,1.000000 78.888893,1.000000 79.666672,1.000000 
	C79.996475,18.710085 80.019386,36.420273 79.950699,54.130104 
	C79.943405,56.009403 80.745399,58.144726 78.557037,59.871109 
z"/>
<path fill="#C06F3D" opacity="1.000000" stroke="none" 
	d="
M120.018219,19.518764 
	C116.051628,20.070637 113.174812,17.659056 109.962654,16.111046 
	C102.143883,12.343016 94.843758,7.528487 86.612045,4.581686 
	C85.335999,4.124885 84.490623,3.054447 84.048477,1.352913 
	C84.750000,1.000000 85.500000,1.000000 86.625000,1.000000 
	C89.098366,2.353631 92.410225,1.413615 93.808197,4.776252 
	C94.019409,5.062239 94.198242,5.264784 94.318176,5.202592 
	C99.955177,6.562333 104.642090,9.651661 109.609039,12.895954 
	C109.814537,13.200621 109.864090,13.199560 109.873787,13.176754 
	C113.656532,14.440606 117.577736,15.460451 120.018219,19.518764 
z"/>
<path fill="#CDE1E6" opacity="1.000000" stroke="none" 
	d="
M94.015358,4.655424 
	C91.736740,3.934181 89.454079,2.806121 87.085709,1.339030 
	C89.041664,1.000000 91.083336,1.000000 93.562500,1.000000 
	C94.003769,2.082869 94.007538,3.165737 94.015358,4.655424 
z"/>
<path fill="#CDE1E6" opacity="1.000000" stroke="none" 
	d="
M262.937500,92.810608 
	C250.762756,87.848885 239.306824,81.114075 227.476852,75.113510 
	C220.968994,71.812500 214.587769,68.261841 207.990021,64.523651 
	C213.438477,65.605301 219.886688,64.275024 223.800659,70.802895 
	C225.030258,72.853630 228.835602,74.381279 232.358322,73.434143 
	C234.931885,72.742210 236.673370,74.018425 237.992340,76.353279 
	C241.140137,81.925514 247.347595,82.572701 252.473999,84.910965 
	C253.804733,85.517929 254.771301,83.814011 256.624603,83.493225 
	C255.696915,86.510529 257.127686,88.214897 259.648560,89.323311 
	C261.079468,89.952492 263.089661,90.085663 262.937500,92.810608 
z"/>
<path fill="#CDE1E6" opacity="1.000000" stroke="none" 
	d="
M195.848969,57.848320 
	C184.658600,53.379025 174.241089,47.051758 163.162964,41.330925 
	C167.904556,41.083565 173.466293,37.984310 176.776459,45.056469 
	C178.448853,48.629471 182.807495,50.379631 186.491974,50.761135 
	C191.297668,51.258739 193.906586,53.614799 195.848969,57.848320 
z"/>
<path fill="#C06F3D" opacity="1.000000" stroke="none" 
	d="
M161.025299,40.755871 
	C158.996780,41.290138 156.967377,40.830700 155.310425,39.834217 
	C143.900757,32.972485 131.356567,28.188501 120.088066,20.419640 
	C119.863274,20.169741 119.996002,20.006651 120.062820,19.925484 
	C125.747787,19.601414 130.279190,22.044363 134.543274,25.943707 
	C134.726929,26.285480 134.813492,26.292658 134.828323,26.251829 
	C138.814880,27.161474 142.705368,28.272495 145.676193,31.889317 
	C145.874329,32.186134 145.957321,32.139244 145.910492,32.130379 
	C148.577423,32.888828 151.259979,33.723637 153.619171,35.936569 
	C153.790741,36.244446 153.850403,36.238632 153.850555,36.208664 
	C154.411499,36.399578 155.012207,36.491592 155.721710,36.974075 
	C155.870377,37.235825 155.980591,37.218876 155.925781,37.211334 
	C157.632767,37.582787 159.361603,38.026310 160.729767,39.844505 
	C160.937286,40.107628 161.003052,40.538887 161.025299,40.755871 
z"/>
<path fill="#CDE1E6" opacity="1.000000" stroke="none" 
	d="
M134.800461,25.889320 
	C130.107162,24.158119 125.487389,22.030754 120.498634,19.873854 
	C117.366547,16.929770 113.412361,15.958754 110.045822,13.458960 
	C114.288475,12.607769 117.561020,15.451241 121.179848,17.098854 
	C124.863777,18.776106 128.305771,20.922716 132.360458,21.781929 
	C134.089676,22.148359 135.089355,23.540590 134.800461,25.889320 
z"/>
<path fill="#CDE1E6" opacity="1.000000" stroke="none" 
	d="
M145.868179,31.805820 
	C142.093338,30.826742 138.608276,28.882168 135.021149,26.499222 
	C135.494919,26.132107 136.144836,26.029411 136.798767,25.978523 
	C139.350922,25.779938 141.384628,22.856995 144.195038,24.348965 
	C147.302002,25.998373 143.884338,29.386869 145.868179,31.805820 
z"/>
<path fill="#CDE1E6" opacity="1.000000" stroke="none" 
	d="
M109.813110,12.842810 
	C104.488312,11.411130 99.749344,8.445724 94.658875,5.441253 
	C101.106819,4.356353 105.223915,8.913277 109.813110,12.842810 
z"/>
<path fill="#CDE1E6" opacity="1.000000" stroke="none" 
	d="
M207.778778,63.914238 
	C204.876251,63.862278 202.700165,61.984398 200.040787,60.454155 
	C203.151428,59.784645 206.930710,58.261364 207.778778,63.914238 
z"/>
<path fill="#CDE1E6" opacity="1.000000" stroke="none" 
	d="
M153.793976,35.876099 
	C151.284317,35.055721 148.777893,33.866997 146.067566,32.399887 
	C149.091599,31.883377 151.974731,32.453064 153.793976,35.876099 
z"/>
<path fill="#CDE1E6" opacity="1.000000" stroke="none" 
	d="
M160.903229,39.734154 
	C159.353256,39.332012 157.769226,38.556396 156.028076,37.492290 
	C157.949753,36.966339 160.076370,36.618034 160.903229,39.734154 
z"/>
<path fill="#CDE1E6" opacity="1.000000" stroke="none" 
	d="
M199.803040,59.855118 
	C198.627151,59.718971 197.428223,59.205555 196.045227,58.417324 
	C197.318863,58.143234 199.011368,57.454910 199.803040,59.855118 
z"/>
<path fill="#CDE1E6" opacity="1.000000" stroke="none" 
	d="
M155.728455,36.955132 
	C155.299957,37.061596 154.729538,36.887367 154.004913,36.445915 
	C154.429321,36.343941 155.007935,36.509190 155.728455,36.955132 
z"/>
<path fill="#964D02" opacity="1.000000" stroke="none" 
	d="
M58.824951,115.074181 
	C59.047333,114.829559 59.373505,114.569832 59.581978,114.570206 
	C61.935631,115.390099 63.691708,114.216454 65.764435,113.212051 
	C69.663147,111.966881 73.324829,110.960281 77.353333,109.853203 
	C78.228394,109.501846 78.759308,109.437187 79.642563,109.804008 
	C86.444969,114.095810 93.611671,116.720192 100.468117,119.972466 
	C115.785637,127.238182 131.198486,134.302933 146.797424,141.706543 
	C147.150681,143.339615 146.246216,143.624329 145.175797,143.643051 
	C143.840164,143.666428 142.431519,142.793335 141.262970,143.145248 
	C128.237274,147.067886 116.162529,140.760910 103.679810,139.393188 
	C91.999077,138.113342 80.024681,137.201553 68.767036,133.350143 
	C63.600601,131.582626 58.461014,130.040558 53.139965,128.833481 
	C48.563614,127.795334 47.487854,125.251839 48.453590,119.769318 
	C49.006851,118.595001 49.660309,118.074028 50.683189,117.332024 
	C51.427822,117.016205 51.852543,116.969009 52.594604,116.875214 
	C54.790329,116.255646 56.787968,116.132172 58.824951,115.074181 
z"/>
<path fill="#8E4A02" opacity="1.000000" stroke="none" 
	d="
M49.793617,118.724518 
	C48.447037,125.065353 49.873825,127.453552 56.065319,127.864395 
	C60.113159,128.132996 63.871140,130.581543 67.114624,130.829926 
	C75.360275,131.461365 82.469131,137.714767 91.141693,135.244751 
	C92.492050,134.860168 94.320572,134.847992 95.520470,135.461105 
	C101.674065,138.605453 108.447914,137.982162 114.941658,139.017990 
	C116.409851,139.252197 117.964653,139.349594 119.303040,139.922440 
	C125.722160,142.669937 132.101730,144.207138 138.930161,141.122314 
	C141.535370,139.945343 143.862381,142.721069 146.782562,142.195282 
	C147.560669,142.157867 148.098984,142.352188 148.818176,142.775665 
	C149.176575,143.173141 149.354095,143.341476 149.260925,143.757568 
	C139.628387,146.290161 129.884232,146.998047 120.629189,145.544617 
	C111.009247,144.033890 101.287674,143.616577 91.751694,141.931137 
	C76.352386,139.209366 60.585999,139.051682 45.392426,134.783630 
	C40.215405,133.329361 34.744164,133.078430 29.992567,130.077454 
	C28.677107,129.246643 26.421482,129.485580 26.303080,127.410530 
	C26.195753,125.529655 27.822546,124.679611 29.430508,123.985260 
	C30.299881,123.609848 31.021160,122.891479 31.997658,121.991943 
	C32.186066,121.656067 32.278011,121.675438 32.313423,121.706314 
	C36.608410,120.277153 41.227962,120.130569 45.351208,118.172394 
	C46.810314,117.479462 48.195900,117.936722 49.793617,118.724518 
z"/>
<path fill="#B05E10" opacity="1.000000" stroke="none" 
	d="
M156.750748,173.302551 
	C156.936035,167.812714 158.072891,162.892502 160.610153,158.103668 
	C163.098007,162.222321 161.442841,166.729309 161.968491,171.532532 
	C161.956818,173.373871 161.941498,174.752533 161.913956,176.544464 
	C160.147308,180.376831 161.273575,183.537857 162.926880,187.023224 
	C163.497208,188.700378 163.480042,190.017548 162.898010,191.699753 
	C159.089645,194.907257 157.594131,198.641235 157.678253,203.244858 
	C157.732193,206.197266 157.057953,209.122559 156.089203,212.337982 
	C153.734344,215.179749 151.000244,217.077515 148.249146,219.516327 
	C145.223923,220.092758 143.237228,218.908157 141.385284,216.629486 
	C140.474396,213.129791 142.507401,210.752335 143.530548,207.692352 
	C145.917053,201.041321 147.163147,194.584900 151.793060,188.982346 
	C154.981232,185.124405 154.649734,178.707825 156.750748,173.302551 
z"/>
<path fill="#D26B22" opacity="1.000000" stroke="none" 
	d="
M78.592056,103.872604 
	C78.183029,96.315834 78.129158,88.611824 78.160095,80.443848 
	C78.663498,80.237923 79.430275,80.472054 79.449898,80.757530 
	C79.976997,88.425873 80.970596,96.112572 78.592056,103.872604 
z"/>
<path fill="#7A3F01" opacity="1.000000" stroke="none" 
	d="
M154.124390,153.306335 
	C153.998123,151.609573 153.998672,150.223145 153.999313,148.420807 
	C153.517944,147.298477 153.872513,146.769226 154.679443,146.148834 
	C156.202347,146.484848 157.412857,146.941635 158.865768,147.615570 
	C158.233032,149.723038 157.357910,151.613342 156.237701,153.748749 
	C155.282913,154.464828 154.752243,154.109116 154.124390,153.306335 
z"/>
<path fill="#D26B22" opacity="1.000000" stroke="none" 
	d="
M78.593224,77.873772 
	C78.178314,73.981125 78.115402,69.941803 78.132294,65.443512 
	C81.387100,69.063446 80.212234,73.392624 78.593224,77.873772 
z"/>
<path fill="#8E4A02" opacity="1.000000" stroke="none" 
	d="
M154.828232,145.790634 
	C154.737900,146.518951 154.483978,147.009842 154.114716,147.752808 
	C153.554825,148.002563 153.110275,148.000244 152.332245,147.995514 
	C151.998199,147.248077 151.997620,146.503021 151.995621,145.385345 
	C152.166260,144.845123 152.338287,144.677551 152.791916,144.734665 
	C153.603882,145.157318 154.134262,145.355270 154.828232,145.790634 
z"/>
<path fill="#964D02" opacity="1.000000" stroke="none" 
	d="
M152.893295,144.668091 
	C152.893723,144.970062 152.713959,144.980743 152.264221,145.002075 
	C151.188156,144.762726 150.382095,144.512726 149.283142,144.134033 
	C148.991562,143.838547 148.992874,143.671783 148.996613,143.254929 
	C150.414459,142.981934 151.757904,143.153839 152.893295,144.668091 
z"/>
<path fill="#D26B22" opacity="1.000000" stroke="none" 
	d="
M79.932907,109.748917 
	C79.470375,109.995934 78.968529,109.942650 78.093414,109.821045 
	C77.814064,109.354248 77.907974,108.955772 78.110779,108.268982 
	C79.061249,108.146599 79.688416,108.557014 79.932907,109.748917 
z"/>
<path fill="#DB6D18" opacity="1.000000" stroke="none" 
	d="
M161.649902,192.335419 
	C161.937897,190.592209 161.943848,189.223999 161.941986,187.445374 
	C160.750595,185.360245 160.872360,183.554306 161.702896,181.357300 
	C165.421677,181.637680 165.893784,184.315552 165.963638,187.036514 
	C166.244156,197.966019 167.680466,208.867538 166.973206,219.816528 
	C166.364304,229.242844 165.731064,238.660339 165.975525,248.115860 
	C166.072571,251.870148 163.857788,254.629822 161.509460,257.617065 
	C160.784027,257.796967 160.275223,257.757050 159.394485,257.632690 
	C158.307739,251.765579 160.349792,246.155655 160.020920,240.362686 
	C159.768677,235.919510 160.478226,231.435043 159.640198,226.547165 
	C160.256882,217.205704 159.898651,208.287247 159.990891,199.376007 
	C160.014816,197.064362 159.894257,194.722687 161.649902,192.335419 
z"/>
<path fill="#DB6511" opacity="1.000000" stroke="none" 
	d="
M261.607178,229.023102 
	C262.019012,232.690826 262.024261,236.386810 262.018066,240.543945 
	C258.049835,239.395203 257.557159,232.089371 261.607178,229.023102 
z"/>
<path fill="#C2610E" opacity="1.000000" stroke="none" 
	d="
M162.001923,180.602173 
	C161.997818,182.728592 161.988388,184.450287 161.956573,186.603455 
	C158.453949,184.010590 159.635483,180.628632 161.541473,177.088226 
	C161.933365,178.037628 161.964996,179.117523 162.001923,180.602173 
z"/>
<path fill="#934E05" opacity="1.000000" stroke="none" 
	d="
M50.231339,118.817993 
	C45.626675,118.654701 41.687916,120.680595 37.600060,121.679466 
	C35.958546,122.080574 34.648701,122.303528 32.732399,121.826897 
	C38.030506,119.200081 44.037819,117.866623 50.576599,116.992279 
	C50.819294,117.588844 50.635490,118.114304 50.231339,118.817993 
z"/>
<path fill="#934E05" opacity="1.000000" stroke="none" 
	d="
M65.633698,112.950943 
	C64.908966,115.857155 62.998692,116.613312 60.019554,114.877655 
	C61.615604,114.023178 63.440762,113.475784 65.633698,112.950943 
z"/>
<path fill="#934E05" opacity="1.000000" stroke="none" 
	d="
M58.659966,114.825905 
	C57.776657,117.107864 55.780640,117.721840 53.126209,117.072647 
	C54.215271,114.867821 56.368694,115.178375 58.659966,114.825905 
z"/>
<path fill="#934E05" opacity="1.000000" stroke="none" 
	d="
M61.047131,266.646423 
	C56.342396,266.459534 57.468811,262.697449 56.999977,259.411957 
	C60.440739,252.130829 66.747795,247.214523 69.826561,240.037079 
	C70.524139,238.410843 72.613266,237.252777 74.270531,236.211304 
	C75.413635,235.492966 76.568474,234.957108 77.155907,233.653824 
	C81.419807,224.194092 90.370430,218.941360 97.113007,211.731262 
	C105.909836,202.324493 117.795082,196.523361 127.008804,187.501770 
	C128.223724,186.312225 129.662643,185.530426 131.648956,185.047424 
	C133.089813,186.254257 132.664917,187.587296 131.800217,188.573685 
	C129.186234,191.555588 127.679199,195.210617 125.259399,198.730255 
	C124.580559,199.678253 124.325676,200.659668 123.717033,200.990646 
	C114.340836,206.089722 107.514008,214.000656 100.461830,221.706955 
	C97.899681,224.506775 94.868500,226.877060 92.054092,229.446381 
	C81.697197,238.901276 73.374290,250.191071 64.068649,260.593323 
	C62.684105,262.141052 62.067623,264.375885 61.047131,266.646423 
z"/>
<path fill="#964D02" opacity="1.000000" stroke="none" 
	d="
M125.341331,198.948730 
	C125.228378,193.487961 128.885925,189.754913 131.951233,185.345032 
	C137.820801,180.354904 142.897675,174.989334 147.332611,169.019775 
	C148.651489,167.244507 150.243088,165.898544 152.644760,165.047150 
	C153.165466,167.221542 152.843994,169.431854 151.270523,171.025131 
	C146.647003,175.706894 144.430145,181.809387 141.145691,187.684601 
	C134.340210,189.449997 130.300079,194.579712 125.341331,198.948730 
z"/>
<path fill="#7F4201" opacity="1.000000" stroke="none" 
	d="
M153.617279,153.008911 
	C154.493134,153.252228 154.988724,153.508469 155.738464,153.879288 
	C154.965500,157.001175 152.263504,157.864243 149.351685,158.954910 
	C148.396286,158.984894 147.809357,158.905731 147.157196,158.254578 
	C146.999847,157.249832 147.000290,156.500275 147.000885,155.375977 
	C148.844482,153.600464 151.123779,153.572739 153.617279,153.008911 
z"/>
<path fill="#844501" opacity="1.000000" stroke="none" 
	d="
M146.685760,158.140823 
	C147.542923,158.183258 148.086456,158.367126 148.815598,158.776718 
	C149.001205,159.002441 149.001053,159.501526 149.000519,159.751068 
	C145.599976,160.566559 143.705246,163.684830 140.344666,164.950714 
	C140.304337,163.894669 140.608658,162.789948 140.956482,161.342621 
	C142.346436,159.215912 144.599701,159.224335 146.685760,158.140823 
z"/>
<path fill="#844501" opacity="1.000000" stroke="none" 
	d="
M137.645020,167.053619 
	C137.905457,168.476318 137.047394,169.332611 135.825607,170.092606 
	C125.163475,176.724899 114.376228,183.176163 103.977661,190.201492 
	C100.189606,192.760727 96.667641,196.245789 92.790169,198.298904 
	C84.974907,202.437119 80.734695,210.444839 73.138962,214.597443 
	C69.172997,216.765640 67.706955,221.670746 63.342266,223.950195 
	C62.818123,219.496902 65.321304,216.279251 68.793930,214.250427 
	C73.653473,211.411316 78.202957,208.781311 81.377708,203.640915 
	C84.764557,198.157104 91.658768,196.301010 96.278008,191.870026 
	C104.172302,184.297455 114.290337,180.276245 123.568764,174.896622 
	C128.120255,172.257675 132.374542,169.108063 137.645020,167.053619 
z"/>
<path fill="#713B01" opacity="1.000000" stroke="none" 
	d="
M101.077721,157.342285 
	C103.636757,155.944672 106.356300,155.209641 109.604980,155.005859 
	C107.637962,157.821350 104.958549,159.603012 101.077721,157.342285 
z"/>
<path fill="#663501" opacity="1.000000" stroke="none" 
	d="
M92.578171,163.187943 
	C94.389114,165.514618 92.507164,165.607773 91.161903,165.830307 
	C90.701851,165.906403 89.714066,165.376938 89.687508,165.063187 
	C89.532204,163.228638 90.946075,163.188522 92.578171,163.187943 
z"/>
<path fill="#7F4201" opacity="1.000000" stroke="none" 
	d="
M144.951355,148.717560 
	C144.556885,148.998276 144.111481,148.999603 143.331985,148.999237 
	C143.110718,148.379333 143.187195,147.639145 143.957321,147.603180 
	C144.258026,147.589127 144.585251,148.142990 144.951355,148.717560 
z"/>
<path fill="#B56518" opacity="1.000000" stroke="none" 
	d="
M147.731781,219.260040 
	C149.178116,216.051926 151.062408,213.853531 154.645966,213.046936 
	C157.884323,215.967178 156.748734,219.616882 156.648224,223.493027 
	C153.777679,238.453430 144.207092,249.379730 136.258240,261.588257 
	C129.962097,263.407318 124.085487,265.573029 117.424286,266.282959 
	C116.761566,266.426910 116.508408,266.444611 115.925652,266.272400 
	C113.322144,262.016052 115.019890,258.710297 117.760483,255.761307 
	C122.008171,251.190567 126.551422,246.666321 130.361420,241.962479 
	C135.399094,235.742889 141.065201,229.734268 144.931030,222.535492 
	C145.568634,221.348206 146.346481,220.294235 147.731781,219.260040 
z"/>
<path fill="#AD6014" opacity="1.000000" stroke="none" 
	d="
M147.655441,218.951492 
	C146.948853,222.709641 145.047897,225.883133 142.680573,228.961884 
	C139.180740,233.513458 134.424332,237.180191 132.509399,242.901184 
	C132.308395,243.501709 131.877090,244.354477 131.393036,244.481354 
	C124.544777,246.276321 123.416176,253.826843 118.295189,257.414185 
	C115.789780,259.169281 115.854446,262.324402 116.002716,265.619843 
	C115.956398,266.393433 115.789955,266.682404 115.272415,266.983551 
	C112.109665,266.855164 109.428665,267.939636 106.324554,268.723907 
	C104.609779,268.958160 103.234810,269.032257 101.446274,269.108521 
	C98.553009,266.706696 99.625191,263.992279 100.945511,261.786377 
	C106.332619,252.785965 112.509758,244.297745 120.028313,236.977234 
	C124.665352,232.462311 129.808304,228.482864 133.537781,222.635223 
	C134.468735,221.749649 135.395157,221.383835 135.969818,220.155396 
	C137.558365,217.993637 138.227554,215.220306 141.709869,215.777924 
	C143.770905,216.968063 145.541809,217.934906 147.655441,218.951492 
z"/>
<path fill="#BF6A1B" opacity="1.000000" stroke="none" 
	d="
M136.382477,261.907166 
	C136.888885,255.777649 141.272705,251.473984 144.256897,246.563339 
	C148.352341,239.824081 153.137802,233.560806 154.747192,225.268066 
	C157.412079,224.948730 157.457169,227.013489 158.254761,228.926651 
	C159.147781,232.970795 159.298187,236.688431 158.439011,240.236755 
	C157.073135,245.877594 156.676682,251.655746 155.263474,257.655212 
	C151.480957,259.853638 147.388672,259.457458 143.381989,260.992004 
	C140.931396,261.398926 138.856232,261.679565 136.382477,261.907166 
z"/>
<path fill="#F8AB50" opacity="1.000000" stroke="none" 
	d="
M115.186172,267.237427 
	C115.131714,266.736389 115.325829,266.487610 115.804688,266.172211 
	C116.176117,266.091675 116.347595,266.143921 116.766899,266.302734 
	C116.765091,267.248413 116.483025,268.034363 115.186172,267.237427 
z"/>
<path fill="#5F3201" opacity="1.000000" stroke="none" 
	d="
M63.581467,173.366241 
	C59.583179,177.983398 54.358639,180.223602 49.692566,183.321884 
	C44.214455,186.959366 40.567295,192.862381 34.985535,196.543823 
	C34.023579,197.178299 33.268749,198.120682 32.326859,198.792755 
	C27.813059,202.013596 27.185587,201.683578 24.437159,197.011688 
	C21.009895,191.185837 17.171644,185.602844 13.554953,179.887070 
	C9.582170,173.608536 10.108330,171.937637 17.178043,170.836044 
	C24.326059,169.722244 31.396389,168.455139 38.867596,169.697510 
	C44.642605,170.657837 50.769768,170.571457 56.737320,169.354660 
	C59.122868,168.868240 61.708672,169.069366 64.161621,169.338104 
	C65.308121,169.463699 67.298080,169.536514 67.331902,171.146500 
	C67.375183,173.206421 65.223701,172.761032 63.581467,173.366241 
z"/>
<path fill="#9F560C" opacity="1.000000" stroke="none" 
	d="
M89.354965,260.924255 
	C85.980011,262.579132 82.848579,263.980347 79.975945,265.791931 
	C77.752205,267.194305 76.955017,269.606537 77.003128,272.240112 
	C77.076416,276.252350 75.415611,279.205231 71.350555,280.948547 
	C69.523254,273.006287 74.855934,266.962891 77.088348,260.042236 
	C77.969078,257.311890 82.035835,257.605927 83.146622,255.139679 
	C87.568459,245.322006 97.973465,240.661530 103.211929,231.518097 
	C104.451263,229.354919 107.269279,228.149673 109.155342,226.294586 
	C119.149162,216.464722 129.458328,206.989426 140.666016,198.069214 
	C142.837708,201.252136 140.741974,203.810501 139.157867,206.143646 
	C137.559235,208.498184 136.147018,210.867233 135.013351,213.856262 
	C128.288406,217.298645 124.677193,223.465485 120.069069,228.561783 
	C115.968971,233.096222 109.662628,235.143814 106.665321,240.940598 
	C105.618546,242.965042 103.957741,244.700272 103.003448,246.842987 
	C102.529739,247.906647 102.127777,249.428757 101.140831,249.704834 
	C95.243507,251.354492 93.425461,257.054047 89.354965,260.924255 
z"/>
<path fill="#A5590A" opacity="1.000000" stroke="none" 
	d="
M134.340576,214.125763 
	C134.311081,208.009979 139.859360,204.384583 140.948166,198.361343 
	C142.995651,196.442184 144.097916,194.374496 145.244797,192.094162 
	C148.527695,185.566788 153.432465,179.953491 156.652435,173.077652 
	C157.672394,178.374451 154.228531,183.186432 154.839325,188.567108 
	C154.887924,188.995209 154.632584,189.705017 154.298569,189.892853 
	C147.459076,193.739563 148.085098,201.414230 145.148743,207.665161 
	C141.227112,209.537003 138.386490,212.606720 134.340576,214.125763 
z"/>
<path fill="#9F560C" opacity="1.000000" stroke="none" 
	d="
M68.656471,283.051819 
	C68.606071,285.117493 67.487785,286.735870 65.330734,287.933014 
	C65.444992,285.919586 65.933327,283.870819 68.656471,283.051819 
z"/>
<path fill="#9F560C" opacity="1.000000" stroke="none" 
	d="
M70.689171,281.058655 
	C70.883133,281.880249 70.587593,282.627838 69.310822,282.941406 
	C69.117027,282.119904 69.412437,281.372253 70.689171,281.058655 
z"/>
<path fill="#753D01" opacity="1.000000" stroke="none" 
	d="
M132.328644,151.991928 
	C132.271179,150.479095 132.954910,149.684448 134.785736,150.770050 
	C134.417709,151.790527 133.577789,151.977951 132.328644,151.991928 
z"/>
<path fill="#CA6818" opacity="1.000000" stroke="none" 
	d="
M155.402496,258.008301 
	C152.592590,248.419617 158.638596,239.448288 157.000122,229.467133 
	C157.583145,227.454010 158.755676,226.754166 160.687012,226.839081 
	C161.789093,227.748749 161.977295,228.703781 161.987946,229.731537 
	C162.070160,237.659485 161.825790,245.570251 161.019043,253.465759 
	C160.866989,254.953918 159.964096,255.841370 159.136475,257.237976 
	C157.951065,257.706329 156.879578,257.864410 155.402496,258.008301 
z"/>
<path fill="#A55A0F" opacity="1.000000" stroke="none" 
	d="
M133.672455,214.147064 
	C137.293427,211.834808 138.679520,206.432602 144.585953,208.000381 
	C144.030243,210.430817 143.063522,212.861023 142.048401,215.646225 
	C139.070068,216.118362 138.914764,218.958862 137.256073,220.787781 
	C136.475784,221.542664 135.930634,222.063812 135.198486,222.797897 
	C131.199066,229.439819 125.944084,234.396698 119.978073,238.882263 
	C117.047966,241.085312 114.965942,244.558334 112.878426,247.707397 
	C109.598618,252.655075 105.040009,256.651245 102.421562,262.084473 
	C101.461029,264.077576 100.808456,266.059753 101.022118,268.694763 
	C99.165543,270.508362 96.929016,269.912598 94.457535,270.257629 
	C93.376709,266.829773 88.177811,266.085449 89.001480,261.382629 
	C90.113548,258.772186 91.195503,256.526581 92.354691,254.321518 
	C92.891335,253.300720 93.493309,251.581253 94.210716,251.502670 
	C100.877228,250.772354 102.312431,244.806168 104.783539,240.461380 
	C108.575218,233.794708 116.071053,231.556946 120.514542,225.829987 
	C121.508629,224.548782 122.913795,223.500885 123.592857,221.990845 
	C125.521759,217.701508 128.959564,215.419754 133.672455,214.147064 
z"/>
<path fill="#C2610E" opacity="1.000000" stroke="none" 
	d="
M161.027267,226.577057 
	C159.890793,227.639420 158.768555,228.280289 157.323303,228.963470 
	C155.740997,228.146500 156.255951,226.524033 155.237061,225.230133 
	C154.999313,221.307861 154.999222,217.614563 154.997421,213.460632 
	C155.362045,208.214630 155.604019,203.415298 156.139145,198.648880 
	C156.486267,195.557144 157.628738,192.800720 161.575958,192.023499 
	C161.604095,203.357986 163.006790,214.800629 161.027267,226.577057 
z"/>
<path fill="#B05E10" opacity="1.000000" stroke="none" 
	d="
M135.311249,222.942535 
	C135.116821,222.120621 135.412338,221.372345 136.690491,221.058594 
	C136.883194,221.879715 136.587601,222.627823 135.311249,222.942535 
z"/>
<path fill="#5A2E01" opacity="1.000000" stroke="none" 
	d="
M32.997940,188.992523 
	C28.099928,192.253891 23.803663,191.177673 21.696466,186.165482 
	C20.809944,184.056793 20.364534,181.705246 20.071842,179.418884 
	C19.707092,176.569656 20.959036,174.596939 23.961033,174.000687 
	C32.209755,172.362366 40.453003,172.523605 48.699276,174.019226 
	C49.538902,174.171494 50.458401,174.290665 50.622326,175.264999 
	C50.844807,176.587479 49.635273,176.704910 48.806980,177.213150 
	C43.287086,180.600174 37.401566,183.511765 32.997940,188.992523 
z"/>
</svg>