<svg version="1.1" id="Layer_1" xmlns="http://www.w3.org/2000/svg" xmlns:xlink="http://www.w3.org/1999/xlink" x="0px" y="0px"
	 width="100%" viewBox="0 0 100 100" enable-background="new 0 0 100 100" xml:space="preserve">
<path fill="#0A192F" opacity="1.000000" stroke="none" 
	d="
M55.322262,100.745094 
	C52.629444,101.000000 50.258884,101.000000 47.444164,101.000000 
	C33.858845,95.990051 22.593290,87.582191 10.411028,80.834785 
	C6.352053,78.586639 4.589001,75.421585 4.629954,70.712860 
	C4.745729,57.401234 4.718499,44.086376 4.646188,30.773956 
	C4.619890,25.932428 6.329321,22.559818 10.685796,20.275026 
	C22.583956,14.034935 33.561825,6.048797 46.678185,1.253996 
	C49.041668,1.000000 51.083332,1.000000 53.562500,1.000000 
	C67.254585,5.766689 78.301857,14.556342 90.602776,21.057735 
	C94.553482,23.145796 96.355263,26.135641 96.340149,30.663525 
	C96.293480,44.640427 96.334518,58.618004 96.318497,72.595444 
	C96.313560,76.898407 94.591988,79.744415 90.812820,81.813637 
	C79.168533,88.189293 68.188026,95.806129 55.322262,100.745094 
z"/>
<path fill="#000000" opacity="1.000000" stroke="none" 
	d="
M55.468658,101.000000 
	C57.534286,96.139832 62.926399,95.263550 67.011719,92.654854 
	C74.417213,87.926018 82.198158,83.767906 89.944878,79.599205 
	C93.014084,77.947578 94.065300,75.717361 94.039917,72.364830 
	C93.934135,58.395100 93.937019,44.423702 94.036209,30.453882 
	C94.060219,27.072134 92.816994,25.010313 89.816010,23.300335 
	C78.424385,16.809328 67.180939,10.057869 55.904209,3.366533 
	C55.226692,2.964509 54.741707,2.238010 54.083565,1.331247 
	C68.633347,1.000000 83.266930,1.041623 97.899773,0.955872 
	C100.137520,0.942758 101.094849,1.125429 101.083321,3.886750 
	C100.952148,35.314636 100.944511,66.743530 101.092094,98.171265 
	C101.105759,101.080154 99.942192,101.039040 97.841797,101.030266 
	C83.873840,100.971878 69.905518,101.000000 55.468658,101.000000 
z"/>
<path fill="#000000" opacity="1.000000" stroke="none" 
	d="
M46.531342,1.000000 
	C43.296120,6.020488 37.278522,7.616127 32.319279,10.740961 
	C25.304173,15.161199 17.976614,19.095980 10.693136,23.074467 
	C7.987613,24.552317 7.001206,26.664106 7.005273,29.564478 
	C7.025097,43.700611 7.137469,57.838711 6.925904,71.971756 
	C6.865618,75.998970 9.424207,77.447227 12.128015,79.056625 
	C22.825933,85.424431 33.545612,91.755669 44.254490,98.105080 
	C45.246178,98.693062 46.355724,99.155495 46.917580,100.669838 
	C32.699394,101.000000 18.398529,100.957024 4.098461,101.044579 
	C1.856513,101.058311 0.905500,100.868439 0.916961,98.111549 
	C1.047622,66.684021 1.055561,35.255489 0.907817,3.828109 
	C0.894135,0.917754 2.059749,0.961159 4.158749,0.969888 
	C18.126528,1.027975 32.094662,1.000000 46.531342,1.000000 
z"/>
<path fill="#61F7D4" opacity="1.000000" stroke="none" 
	d="
M59.612312,49.623833 
	C58.600780,51.062340 59.846607,51.196712 60.335300,51.627277 
	C63.230625,54.178188 64.257309,57.242260 63.263248,61.023956 
	C62.245277,64.896637 59.490845,66.814140 55.855083,67.535545 
	C50.926262,68.513512 45.909485,67.810028 40.934715,67.980614 
	C39.380047,68.033913 38.981201,67.177711 38.983822,65.804031 
	C39.002529,55.995205 39.011398,46.186230 38.970524,36.377525 
	C38.963791,34.761013 39.403320,33.913666 41.204971,33.970753 
	C45.521736,34.107536 49.905380,33.688087 54.147511,34.294403 
	C62.367966,35.469334 64.930367,42.597687 59.612312,49.623833 
z"/>
<path fill="#0C1E33" opacity="1.000000" stroke="none" 
	d="
M52.439827,62.925976 
	C51.181725,62.967896 50.341534,63.080418 49.533440,62.966072 
	C47.982544,62.746616 45.496067,63.866905 45.069130,62.114052 
	C44.425945,59.473392 43.808548,55.669502 45.178146,53.973881 
	C47.105366,51.587887 51.022491,52.945068 54.037434,53.368828 
	C56.333706,53.691574 57.891785,55.351875 57.894043,57.842842 
	C57.896988,61.094646 55.795746,62.450138 52.439827,62.925976 
z"/>
<path fill="#0C1F33" opacity="1.000000" stroke="none" 
	d="
M56.046116,40.914146 
	C57.489983,43.689693 57.230736,45.969261 54.771198,47.272156 
	C51.868736,48.809689 48.234238,49.005928 45.610809,47.687714 
	C43.432507,46.593163 44.832397,43.104031 44.802040,40.693291 
	C44.771351,38.256432 46.882092,39.066452 48.191532,39.037498 
	C50.824173,38.979282 53.574966,38.591633 56.046116,40.914146 
z"/>
</svg>